<svg preserveAspectRatio="none" width="100%" height="100%" overflow="visible" style="display: block;" viewBox="0 0 16 16" fill="none" xmlns="http://www.w3.org/2000/svg">
<g id="eye">
<path id="Vector" d="M6.01995 9.33336C5.75995 8.95336 5.61328 8.49336 5.61328 8.00003C5.61328 6.68003 6.67995 5.61336 7.99995 5.61336C9.31995 5.61336 10.3866 6.68003 10.3866 8.00003C10.3866 9.32003 9.31995 10.3867 7.99995 10.3867" stroke="var(--stroke-0, #808080)" stroke-linecap="round" stroke-linejoin="round"/>
<path id="Vector_2" d="M11.7066 3.71999C10.5799 2.91999 9.31323 2.48665 7.9999 2.48665C5.64656 2.48665 3.45323 3.87332 1.92656 6.27332C1.32656 7.21332 1.32656 8.79332 1.92656 9.73332C3.45323 12.1333 5.64656 13.52 7.9999 13.52C10.3532 13.52 12.5466 12.1333 14.0732 9.73332C14.6732 8.79332 14.6732 7.21332 14.0732 6.27332" stroke="var(--stroke-0, #808080)" stroke-linecap="round" stroke-linejoin="round"/>
<g id="Vector_3" opacity="0">
</g>
</g>
</svg>
