<svg xmlns="http://www.w3.org/2000/svg" fill="none" viewBox="0 0 24 24" width="24" height="24" preserveAspectRatio="xMidYMid meet">
<g id="Frame 1000004835">
<rect width="24" height="24" rx="12" fill="var(--fill-0, #F08300)"/>
<path id="Group (Traced)" fill-rule="evenodd" clip-rule="evenodd" d="M9.80033 10.8873C9.73837 14.4293 9.67357 15.0694 9.31728 15.6577C8.21066 17.4858 4.94361 17.762 3.93779 16.1126C3.41721 15.2588 3.35001 13.3105 3.82739 12.9142C4.51073 12.347 4.92463 12.7286 4.99641 13.9918C5.08477 15.549 5.32237 15.8158 6.50186 15.6827C8.10113 15.5025 8.09241 15.5278 8.09241 11.0606C8.09241 8.87526 8.15786 7.0218 8.23793 6.94195C8.31779 6.86188 8.71815 6.79642 9.12768 6.79642H9.8719L9.80033 10.8873ZM15.1803 8.16006C15.2433 8.42995 15.3188 9.87824 15.348 11.3782L15.4015 14.1055L16.3166 14.1721C16.8485 14.2107 17.5107 14.0942 17.8984 13.8937C19.0078 13.3201 18.6974 12.887 17.0379 12.693C16.1667 12.5911 16.056 12.5167 16.056 12.0328C16.056 11.5166 16.1287 11.4838 17.4079 11.4227C18.6995 11.361 18.7995 11.3939 19.6554 12.1672C20.3774 12.8193 20.5384 13.1014 20.4854 13.6198C20.4302 14.1605 20.2104 14.3728 19.1106 14.9481C17.9429 15.5588 17.6012 15.6328 15.947 15.6339C14.5222 15.6345 13.958 15.7257 13.5123 16.0277C12.6891 16.5851 10.641 16.4739 10.5254 15.8654C10.4182 15.3029 11.056 14.8691 11.9896 14.8691C13.0676 14.8691 13.547 14.3529 13.547 13.1922C13.547 12.3725 13.4363 12.1384 12.7632 11.5351C12.3323 11.1489 11.6695 10.7224 11.2905 10.5873C10.7987 10.4123 10.5823 10.1835 10.5343 9.78791C10.4372 8.9874 11.1441 8.83228 12.3127 9.39802C12.8274 9.64719 13.3155 9.85097 13.3977 9.85097C13.4798 9.85097 13.547 9.5154 13.547 9.10522C13.547 7.97788 13.7387 7.66915 14.4389 7.66915C14.9097 7.66915 15.0943 7.79133 15.1803 8.16006Z" fill="var(--fill-0, white)"/>
</g>
</svg>
