<svg preserveAspectRatio="none" width="100%" height="100%" overflow="visible" style="display: block;" viewBox="0 0 24 24" fill="none" xmlns="http://www.w3.org/2000/svg">
<g id="vuesax/bold/frame">
<path id="Vector" d="M20.41 6.96V8.79C20.41 9.43 20.11 10.03 19.59 10.4L8.59 18.46C7.88 18.98 6.91 18.98 6.21 18.45L4.77 17.37C4.12 16.88 3.59 15.82 3.59 15.01V6.96C3.59 5.84 4.45 4.6 5.5 4.21L10.97 2.16C11.54 1.95 12.46 1.95 13.03 2.16L18.5 4.21C19.55 4.6 20.41 5.84 20.41 6.96Z" fill="var(--fill-0, #292D32)"/>
<path id="Vector_2" d="M18.82 12.34C19.48 11.86 20.41 12.33 20.41 13.15V15.03C20.41 15.84 19.88 16.89 19.23 17.38L13.76 21.47C13.28 21.82 12.64 22 12 22C11.36 22 10.72 21.82 10.24 21.46L9.41 20.84C8.87 20.44 8.87 19.63 9.42 19.23L18.82 12.34Z" fill="var(--fill-0, #292D32)"/>
<g id="Vector_3" opacity="0">
</g>
</g>
</svg>
