<svg preserveAspectRatio="none" width="100%" height="100%" overflow="visible" style="display: block;" viewBox="0 0 40 40" fill="none" xmlns="http://www.w3.org/2000/svg">
<g id="la:stripe-s">
<path id="Vector" d="M20.645 5C13.42 5 8.75 8.8925 8.75 14.9175C8.75 20.8837 14.1112 22.6612 17.6587 23.8375C19.2537 24.3662 21.2363 25.0225 21.25 25.6713C21.24 26.1725 20.0538 26.25 19.3463 26.25C16.9888 26.25 13.3725 25.275 10.5537 23.88L8.75 22.9862V32.7325L9.51375 33.0512C12.4475 34.2837 15.8838 34.9938 18.9425 35C26.65 35 31.25 31.4475 31.25 25.5C31.25 19.01 25.74 17.2462 22.095 16.0787C20.7625 15.6512 18.75 15.0063 18.75 14.4675C18.75 14.1813 18.75 13.75 20.2875 13.75C22.6 13.75 25.815 14.7062 28.11 16.075L30 17.2025V6.93375L29.2038 6.62375C26.5088 5.575 23.4713 5 20.645 5ZM20.645 7.5C22.8938 7.5 25.2962 7.91 27.5 8.6625V12.9513C25.1425 11.9025 22.4412 11.25 20.2875 11.25C16.6437 11.25 16.25 13.5 16.25 14.4675C16.25 16.8313 18.7187 17.6237 21.3325 18.46C25.6762 19.85 28.75 21.1675 28.75 25.5C28.75 31.8162 21.8913 32.5 18.945 32.5C16.47 32.495 13.7088 31.9712 11.25 31.0525V26.9213C13.7413 27.9175 16.8325 28.75 19.3463 28.75C23.1638 28.75 23.7462 26.8325 23.75 25.6787V25.6638C23.74 23.2188 21.1687 22.3675 18.445 21.4637C14.2325 20.0687 11.25 18.7825 11.25 14.9188C11.25 10.3413 14.85 7.5 20.645 7.5Z" fill="var(--fill-0, #6772E4)"/>
</g>
</svg>
