<svg preserveAspectRatio="none" width="100%" height="100%" overflow="visible" style="display: block;" viewBox="0 0 20 20" fill="none" xmlns="http://www.w3.org/2000/svg">
<g id="card-tick">
<path id="Vector" d="M1.66667 9.55V13.7167C1.66667 15.625 3.20833 17.1667 5.11667 17.1667H14.875C16.7833 17.1667 18.3333 15.6167 18.3333 13.7083V9.55C18.3333 8.99167 17.8833 8.54167 17.325 8.54167H2.675C2.11667 8.54167 1.66667 8.99167 1.66667 9.55ZM6.66667 14.375H5C4.65833 14.375 4.375 14.0917 4.375 13.75C4.375 13.4083 4.65833 13.125 5 13.125H6.66667C7.00833 13.125 7.29167 13.4083 7.29167 13.75C7.29167 14.0917 7.00833 14.375 6.66667 14.375ZM12.0833 14.375H8.75C8.40833 14.375 8.125 14.0917 8.125 13.75C8.125 13.4083 8.40833 13.125 8.75 13.125H12.0833C12.425 13.125 12.7083 13.4083 12.7083 13.75C12.7083 14.0917 12.425 14.375 12.0833 14.375Z" fill="var(--fill-0, white)"/>
<path id="Vector_2" d="M11.25 3.84167V6.28333C11.25 6.84167 10.8 7.29167 10.2417 7.29167H2.675C2.10833 7.29167 1.66667 6.825 1.66667 6.26667C1.675 5.325 2.05 4.46667 2.675 3.84167C3.3 3.21667 4.16667 2.83333 5.11667 2.83333H10.2417C10.8 2.83333 11.25 3.28333 11.25 3.84167Z" fill="var(--fill-0, white)"/>
<path id="Vector_3" d="M16.6417 1.66667H14.1917C13.1333 1.66667 12.5 2.3 12.5 3.35833V5.80833C12.5 6.86667 13.1333 7.5 14.1917 7.5H16.6417C17.7 7.5 18.3333 6.86667 18.3333 5.80833V3.35833C18.3333 2.3 17.7 1.66667 16.6417 1.66667ZM17.1917 3.70833L15.2167 6.01667C15.1417 6.10833 15.025 6.16667 14.9083 6.16667C14.9 6.16667 14.9 6.16667 14.8917 6.16667C14.775 6.16667 14.6667 6.125 14.5833 6.04167L13.6667 5.14167C13.5 4.975 13.5 4.7 13.6667 4.53333C13.8333 4.36667 14.1083 4.35833 14.275 4.53333L14.8583 5.10833L16.525 3.15833C16.6833 2.975 16.95 2.95833 17.1333 3.10833C17.325 3.25833 17.3417 3.53333 17.1917 3.70833Z" fill="var(--fill-0, white)"/>
<g id="Vector_4" opacity="0">
</g>
</g>
</svg>
