<svg width="150" height="150" viewBox="0 0 150 150" fill="none" xmlns="http://www.w3.org/2000/svg">
<path d="M74.834 10C106.545 10 132.251 35.7063 132.251 67.417C132.251 86.9095 122.537 104.132 107.687 114.511C108.228 113.041 108.672 111.525 109.014 109.971C115.413 104.824 120.628 98.2657 124.183 90.7656C123.956 90.5142 123.817 90.1816 123.817 89.8164V86.1699C118.512 87.8696 113.139 89.2835 107.722 90.417C107.391 89.5103 107.022 88.6218 106.62 87.752C112.744 86.4926 118.811 84.8673 124.786 82.8721C125.218 82.7282 125.694 82.8002 126.063 83.0664C126.433 83.3327 126.652 83.7613 126.652 84.2168V84.6104C128.445 79.2046 129.417 73.4243 129.417 67.417C129.417 62.344 128.724 57.4329 127.429 52.7725C127.408 52.7664 127.387 52.7619 127.367 52.7549C118.399 49.6257 109.237 47.3206 99.9834 45.8379C101.482 56.8949 101.823 68.0712 101.007 79.1826C100.167 78.2373 99.2782 77.3368 98.3418 76.4873C98.9388 66.1178 98.5137 55.7033 97.0615 45.3984C82.3792 43.3246 67.4938 43.3143 52.8096 45.3691C51.3619 55.6278 50.9313 65.9955 51.5146 76.3193C50.5787 77.1563 49.687 78.0416 48.8457 78.9736C48.0482 67.9196 48.3951 56.8025 49.8887 45.8037C40.5655 47.2852 31.3349 49.6026 22.3008 52.7549C22.2802 52.7621 22.2589 52.7663 22.2383 52.7725C20.9434 57.4329 20.251 62.3441 20.251 67.417C20.251 73.4265 21.2236 79.2087 23.0176 84.6162V84.2168C23.0177 83.7612 23.2367 83.3327 23.6064 83.0664C23.9761 82.8005 24.4519 82.7278 24.8838 82.8721C30.8589 84.8672 36.925 86.4918 43.0479 87.751C42.6457 88.6212 42.2764 89.5099 41.9453 90.417C36.5287 89.2837 31.1564 87.8694 25.8516 86.1699V89.8164C25.8516 90.1819 25.7114 90.5141 25.4844 90.7656C29.0394 98.2662 34.2545 104.826 40.6543 109.973C40.9962 111.526 41.4396 113.042 41.9805 114.511C27.1305 104.132 17.417 86.9092 17.417 67.417C17.417 35.7063 43.1233 10 74.834 10ZM51.4844 18.0664C38.3624 24.286 28.1164 35.5848 23.2861 49.4238C32.1491 46.454 41.1902 44.2702 50.3154 42.8711C51.5908 34.6239 53.5124 26.4526 56.0811 18.4346H52.4346C52.0685 18.4345 51.7358 18.2942 51.4844 18.0664ZM98.3115 18.1279C98.0702 18.3188 97.7662 18.4344 97.4346 18.4346H93.7881C96.36 26.4627 98.2823 34.6446 99.5576 42.9023C108.613 44.3026 117.585 46.4764 126.381 49.4238C121.566 35.6301 111.372 24.3601 98.3115 18.1279ZM74.834 12.834C68.8241 12.834 63.0415 13.8064 57.6338 15.6006H58.0352C58.4907 15.6007 58.9183 15.8198 59.1846 16.1895C59.4507 16.5592 59.5232 17.0347 59.3789 17.4668C56.6458 25.6523 54.6036 34.0078 53.251 42.4473C67.6472 40.509 82.2266 40.518 96.6211 42.4746C95.2685 34.0259 93.2263 25.661 90.4902 17.4668C90.3459 17.0346 90.4183 16.5592 90.6846 16.1895C90.9509 15.8198 91.3784 15.6007 91.834 15.6006H92.0342C86.6264 13.8064 80.8438 12.834 74.834 12.834Z" fill="#28AAE1"/>
<path d="M75.1847 106.692C74.9806 106.663 74.7181 106.663 74.4847 106.692C69.3514 106.517 65.2681 102.317 65.2681 97.1543C65.2681 91.8751 69.5264 87.5876 74.8347 87.5876C80.1139 87.5876 84.4014 91.8751 84.4014 97.1543C84.3722 102.317 80.3181 106.517 75.1847 106.692Z" stroke="#28AAE1" stroke-width="3" stroke-linecap="round" stroke-linejoin="round"/>
<path d="M94.492 125.942C89.3003 130.696 82.417 133.584 74.8336 133.584C67.2503 133.584 60.367 130.696 55.1753 125.942C55.467 123.2 57.217 120.517 60.3378 118.417C68.3295 113.109 81.3961 113.109 89.3295 118.417C92.4503 120.517 94.2003 123.2 94.492 125.942Z" stroke="#28AAE1" stroke-width="3" stroke-linecap="round" stroke-linejoin="round"/>
<path d="M74.8337 133.584C90.942 133.584 104 120.525 104 104.417C104 88.3088 90.942 75.2505 74.8337 75.2505C58.7254 75.2505 45.667 88.3088 45.667 104.417C45.667 120.525 58.7254 133.584 74.8337 133.584Z" stroke="#28AAE1" stroke-width="3" stroke-linecap="round" stroke-linejoin="round"/>
</svg>
