<svg width="150" height="150" viewBox="0 0 150 150" fill="none" xmlns="http://www.w3.org/2000/svg">
<path d="M50.5787 99.0414L44.1436 114.409C41.9364 119.681 45.8082 125.499 51.5228 125.499H75.2361H98.6324C104.305 125.499 108.175 119.76 106.049 114.501L99.8458 99.1569C98.3146 95.3696 94.1759 93.3443 90.2459 94.4592L80.694 97.1687C77.1258 98.1808 73.3464 98.1808 69.7782 97.1687L60.141 94.4349C56.2472 93.3304 52.1419 95.3081 50.5787 99.0414Z" stroke="#28AAE1" stroke-width="2.99998"/>
<path d="M47.6396 24.906C54.0097 24.9061 59.1396 30.1716 59.1396 36.5037C59.1396 41.2171 62.9642 45.1013 67.6396 45.1013H82.3594C87.0348 45.1013 90.8594 41.2171 90.8594 36.5037C90.8594 30.1716 95.9894 24.9061 102.359 24.906H126.999C133.35 24.906 138.499 30.0548 138.499 36.406V127C138.499 133.351 133.35 138.5 126.999 138.5H23C16.6488 138.5 11.5 133.351 11.5 127V36.406C11.5 30.0548 16.6488 24.906 23 24.906H47.6396ZM23 27.906C18.3056 27.906 14.5 31.7116 14.5 36.406V127C14.5 131.694 18.3056 135.5 23 135.5H126.999C131.693 135.5 135.499 131.694 135.499 127V36.406C135.499 31.7117 131.693 27.906 126.999 27.906H102.359C97.684 27.9061 93.8594 31.7904 93.8594 36.5037C93.8594 42.8358 88.7295 48.1013 82.3594 48.1013H67.6396C61.2695 48.1013 56.1396 42.8358 56.1396 36.5037C56.1396 31.7903 52.315 27.9061 47.6396 27.906H23Z" fill="#28AAE1"/>
<rect x="66.9995" y="13" width="16.9999" height="25.9998" rx="4.49997" stroke="#28AAE1" stroke-width="2.99998"/>
<path d="M75.4985 57.9998C84.0583 57.9998 90.9976 64.9393 90.9976 73.4998C90.9975 82.0601 84.0582 88.9997 75.4985 88.9998C66.9388 88.9998 59.9996 82.0601 59.9995 73.4998C59.9995 64.9393 66.9388 57.9998 75.4985 57.9998Z" stroke="#28AAE1" stroke-width="2.99998"/>
</svg>
