<svg width="150" height="150" viewBox="0 0 150 150" fill="none" xmlns="http://www.w3.org/2000/svg">
<path d="M54.5 113.458V119.109C54.5003 121.32 53.97 123.51 52.9394 125.553C51.9088 127.596 50.3981 129.452 48.4935 131.015L44.25 134.5H105.75L101.507 131.015C99.602 129.452 98.0912 127.596 97.0606 125.553C96.03 123.51 95.4997 121.32 95.5 119.109V113.458M136.5 46.125V100.833C136.5 104.182 134.88 107.393 131.997 109.761C129.113 112.128 125.203 113.458 121.125 113.458H28.875C24.7973 113.458 20.8866 112.128 18.0032 109.761C15.1199 107.393 13.5 104.182 13.5 100.833V46.125M136.5 46.125C136.5 42.7766 134.88 39.5654 131.997 37.1978C129.113 34.8301 125.203 33.5 121.125 33.5H28.875C24.7973 33.5 20.8866 34.8301 18.0032 37.1978C15.1199 39.5654 13.5 42.7766 13.5 46.125M136.5 46.125V84C136.5 87.3484 134.88 90.5596 131.997 92.9272C129.113 95.2949 125.203 96.625 121.125 96.625H28.875C24.7973 96.625 20.8866 95.2949 18.0032 92.9272C15.1199 90.5596 13.5 87.3484 13.5 84V46.125" stroke="#28AAE1" stroke-width="3" stroke-linecap="round" stroke-linejoin="round"/>
<path d="M74.5 29.5C73.472 29.5009 72.4534 29.3036 71.5 28.919L70.5 33.5M74.5 29.5C75.528 29.5009 76.5466 29.3036 77.5 28.919L78.5 33.5M74.5 29.5C76.6217 29.5 78.6566 28.6571 80.1569 27.1569C81.6571 25.6566 82.5 23.6217 82.5 21.5C82.5 19.3783 81.6571 17.3434 80.1569 15.8431C78.6566 14.3429 76.6217 13.5 74.5 13.5C72.3783 13.5 70.3434 14.3429 68.8431 15.8431C67.3429 17.3434 66.5 19.3783 66.5 21.5C66.5 23.6217 67.3429 25.6566 68.8431 27.1569C70.3434 28.6571 72.3783 29.5 74.5 29.5ZM70.5 33.5H78.5M70.5 33.5H68.5M78.5 33.5H80.5" stroke="#28AAE1" stroke-width="3" stroke-linecap="square"/>
<path d="M77.5 21.5C77.5 22.2956 77.1839 23.0587 76.6213 23.6213C76.0587 24.1839 75.2956 24.5 74.5 24.5C73.7044 24.5 72.9413 24.1839 72.3787 23.6213C71.8161 23.0587 71.5 22.2956 71.5 21.5C71.5 20.7044 71.8161 19.9413 72.3787 19.3787C72.9413 18.8161 73.7044 18.5 74.5 18.5C75.2956 18.5 76.0587 18.8161 76.6213 19.3787C77.1839 19.9413 77.5 20.7044 77.5 21.5Z" stroke="#28AAE1" stroke-width="3"/>
<path d="M74.7597 68.19C74.6081 68.1683 74.4131 68.1683 74.2397 68.19C70.4264 68.06 67.3931 64.94 67.3931 61.105C67.3931 57.1833 70.5564 53.9983 74.4997 53.9983C78.4214 53.9983 81.6064 57.1833 81.6064 61.105C81.5847 64.94 78.5731 68.06 74.7597 68.19Z" stroke="#28AAE1" stroke-width="3" stroke-linecap="round" stroke-linejoin="round"/>
<path d="M89.1031 82.4899C85.2465 86.0215 80.1331 88.1666 74.4998 88.1666C68.8665 88.1666 63.7532 86.0215 59.8965 82.4899C60.1132 80.4532 61.4132 78.4599 63.7315 76.8999C69.6682 72.9565 79.3748 72.9565 85.2681 76.8999C87.5865 78.4599 88.8865 80.4532 89.1031 82.4899Z" stroke="#28AAE1" stroke-width="3" stroke-linecap="round" stroke-linejoin="round"/>
<path d="M74.5002 88.1666C86.4663 88.1666 96.1668 78.4661 96.1668 66.4999C96.1668 54.5337 86.4663 44.8333 74.5002 44.8333C62.534 44.8333 52.8335 54.5337 52.8335 66.4999C52.8335 78.4661 62.534 88.1666 74.5002 88.1666Z" stroke="#28AAE1" stroke-width="3" stroke-linecap="round" stroke-linejoin="round"/>
</svg>
