<svg preserveAspectRatio="none" width="100%" height="100%" overflow="visible" style="display: block;" viewBox="0 0 24 24" fill="none" xmlns="http://www.w3.org/2000/svg">
<g id="material-symbols:home-rounded">
<path id="Vector" d="M3.31429 19.5786V9.80714C3.31429 9.46333 3.39137 9.13762 3.54554 8.83C3.69972 8.52238 3.91215 8.26905 4.18286 8.07L10.6971 3.18429C11.0771 2.89476 11.5114 2.75 12 2.75C12.4886 2.75 12.9229 2.89476 13.3029 3.18429L19.8171 8.07C20.0886 8.26905 20.3014 8.52238 20.4555 8.83C20.6097 9.13762 20.6864 9.46333 20.6857 9.80714V19.5786C20.6857 20.1757 20.4729 20.6871 20.0473 21.1127C19.6217 21.5383 19.1107 21.7507 18.5143 21.75H15.2571C14.9495 21.75 14.6918 21.6458 14.4841 21.4373C14.2764 21.2289 14.1722 20.9712 14.1714 20.6643V15.2357C14.1714 14.9281 14.0672 14.6704 13.8587 14.4627C13.6503 14.255 13.3926 14.1507 13.0857 14.15H10.9143C10.6067 14.15 10.349 14.2542 10.1413 14.4627C9.93352 14.6711 9.8293 14.9288 9.82857 15.2357V20.6643C9.82857 20.9719 9.72434 21.2299 9.51589 21.4384C9.30743 21.6469 9.04975 21.7507 8.74286 21.75H5.48572C4.88857 21.75 4.37756 21.5376 3.95269 21.1127C3.52781 20.6878 3.31501 20.1764 3.31429 19.5786Z" fill="var(--fill-0, #0D6EFD)"/>
</g>
</svg>
