<svg xmlns="http://www.w3.org/2000/svg" fill="none" viewBox="0 0 16 16" width="16" height="16" preserveAspectRatio="xMidYMid meet">
<g id="calendar">
<path id="Vector" d="M5.33333 3.83333C5.06 3.83333 4.83333 3.60667 4.83333 3.33333V1.33333C4.83333 1.06 5.06 0.833333 5.33333 0.833333C5.60667 0.833333 5.83333 1.06 5.83333 1.33333V3.33333C5.83333 3.60667 5.60667 3.83333 5.33333 3.83333Z" fill="var(--fill-0, #686868)"/>
<path id="Vector_2" d="M10.6667 3.83333C10.3933 3.83333 10.1667 3.60667 10.1667 3.33333V1.33333C10.1667 1.06 10.3933 0.833333 10.6667 0.833333C10.94 0.833333 11.1667 1.06 11.1667 1.33333V3.33333C11.1667 3.60667 10.94 3.83333 10.6667 3.83333Z" fill="var(--fill-0, #686868)"/>
<path id="Vector_3" d="M5.66667 9.66667C5.58 9.66667 5.49333 9.64668 5.41333 9.61335C5.32667 9.58001 5.26 9.53333 5.19333 9.47333C5.07333 9.34667 5 9.18 5 9C5 8.91334 5.02 8.82667 5.05333 8.74667C5.08667 8.66667 5.13333 8.59334 5.19333 8.52668C5.26 8.46668 5.32667 8.42 5.41333 8.38666C5.65333 8.28666 5.95333 8.34001 6.14 8.52668C6.26 8.65334 6.33333 8.82667 6.33333 9C6.33333 9.04 6.32667 9.08668 6.32 9.13335C6.31333 9.17335 6.3 9.21334 6.28 9.25334C6.26667 9.29334 6.24667 9.33334 6.22 9.37334C6.2 9.40667 6.16667 9.44 6.14 9.47333C6.01333 9.59333 5.84 9.66667 5.66667 9.66667Z" fill="var(--fill-0, #686868)"/>
<path id="Vector_4" d="M8 9.66666C7.91333 9.66666 7.82667 9.64667 7.74667 9.61334C7.66 9.58001 7.59333 9.53333 7.52667 9.47333C7.40667 9.34666 7.33333 9.18 7.33333 9C7.33333 8.91333 7.35333 8.82666 7.38667 8.74666C7.42 8.66666 7.46667 8.59334 7.52667 8.52667C7.59333 8.46667 7.66 8.41999 7.74667 8.38666C7.98667 8.27999 8.28667 8.34 8.47333 8.52667C8.59333 8.65334 8.66667 8.82666 8.66667 9C8.66667 9.04 8.66 9.08667 8.65333 9.13334C8.64667 9.17334 8.63333 9.21333 8.61333 9.25333C8.6 9.29333 8.58 9.33333 8.55333 9.37333C8.53333 9.40666 8.5 9.43999 8.47333 9.47333C8.34667 9.59333 8.17333 9.66666 8 9.66666Z" fill="var(--fill-0, #686868)"/>
<path id="Vector_5" d="M10.3333 9.66666C10.2467 9.66666 10.16 9.64667 10.08 9.61334C9.99333 9.58001 9.92667 9.53333 9.86 9.47333C9.83333 9.43999 9.80667 9.40666 9.78 9.37333C9.75333 9.33333 9.73333 9.29333 9.72 9.25333C9.7 9.21333 9.68667 9.17334 9.68 9.13334C9.67333 9.08667 9.66667 9.04 9.66667 9C9.66667 8.82666 9.74 8.65334 9.86 8.52667C9.92667 8.46667 9.99333 8.41999 10.08 8.38666C10.3267 8.27999 10.62 8.34 10.8067 8.52667C10.9267 8.65334 11 8.82666 11 9C11 9.04 10.9933 9.08667 10.9867 9.13334C10.98 9.17334 10.9667 9.21333 10.9467 9.25333C10.9333 9.29333 10.9133 9.33333 10.8867 9.37333C10.8667 9.40666 10.8333 9.43999 10.8067 9.47333C10.68 9.59333 10.5067 9.66666 10.3333 9.66666Z" fill="var(--fill-0, #686868)"/>
<path id="Vector_6" d="M5.66667 12C5.58 12 5.49333 11.98 5.41333 11.9467C5.33333 11.9133 5.26 11.8667 5.19333 11.8067C5.07333 11.68 5 11.5067 5 11.3333C5 11.2467 5.02 11.16 5.05333 11.08C5.08667 10.9933 5.13333 10.92 5.19333 10.86C5.44 10.6133 5.89333 10.6133 6.14 10.86C6.26 10.9867 6.33333 11.16 6.33333 11.3333C6.33333 11.5067 6.26 11.68 6.14 11.8067C6.01333 11.9267 5.84 12 5.66667 12Z" fill="var(--fill-0, #686868)"/>
<path id="Vector_7" d="M8 12C7.82667 12 7.65333 11.9267 7.52667 11.8067C7.40667 11.68 7.33333 11.5067 7.33333 11.3333C7.33333 11.2467 7.35333 11.16 7.38667 11.08C7.42 10.9933 7.46667 10.92 7.52667 10.86C7.77333 10.6133 8.22667 10.6133 8.47333 10.86C8.53333 10.92 8.58 10.9933 8.61333 11.08C8.64667 11.16 8.66667 11.2467 8.66667 11.3333C8.66667 11.5067 8.59333 11.68 8.47333 11.8067C8.34667 11.9267 8.17333 12 8 12Z" fill="var(--fill-0, #686868)"/>
<path id="Vector_8" d="M10.3333 12C10.16 12 9.98667 11.9267 9.86 11.8067C9.8 11.7467 9.75333 11.6734 9.72 11.5867C9.68667 11.5067 9.66667 11.42 9.66667 11.3334C9.66667 11.2467 9.68667 11.16 9.72 11.08C9.75333 10.9934 9.8 10.92 9.86 10.86C10.0133 10.7067 10.2467 10.6334 10.46 10.68C10.5067 10.6867 10.5467 10.7 10.5867 10.72C10.6267 10.7333 10.6667 10.7534 10.7067 10.78C10.74 10.8 10.7733 10.8334 10.8067 10.86C10.9267 10.9867 11 11.16 11 11.3334C11 11.5067 10.9267 11.68 10.8067 11.8067C10.68 11.9267 10.5067 12 10.3333 12Z" fill="var(--fill-0, #686868)"/>
<path id="Vector_9" d="M13.6667 6.55998H2.33333C2.06 6.55998 1.83333 6.33331 1.83333 6.05998C1.83333 5.78664 2.06 5.55998 2.33333 5.55998H13.6667C13.94 5.55998 14.1667 5.78664 14.1667 6.05998C14.1667 6.33331 13.94 6.55998 13.6667 6.55998Z" fill="var(--fill-0, #686868)"/>
<path id="Vector_10" d="M10.6667 15.1667H5.33333C2.9 15.1667 1.5 13.7667 1.5 11.3333V5.66667C1.5 3.23333 2.9 1.83333 5.33333 1.83333H10.6667C13.1 1.83333 14.5 3.23333 14.5 5.66667V11.3333C14.5 13.7667 13.1 15.1667 10.6667 15.1667ZM5.33333 2.83333C3.42667 2.83333 2.5 3.76 2.5 5.66667V11.3333C2.5 13.24 3.42667 14.1667 5.33333 14.1667H10.6667C12.5733 14.1667 13.5 13.24 13.5 11.3333V5.66667C13.5 3.76 12.5733 2.83333 10.6667 2.83333H5.33333Z" fill="var(--fill-0, #686868)"/>
<g id="Vector_11" opacity="0">
</g>
</g>
</svg>
