<svg viewBox="0 0 24.3478 5.88335" fill="none" xmlns="http://www.w3.org/2000/svg" preserveAspectRatio="xMidYMid meet">
<g id="Alipay">
<path id="Vector" d="M24.3421 1.62236L24.3478 1.6163H23.4381L22.8636 3.52469H22.8332L22.1736 1.6163H21.0925L22.3933 4.76573L21.8498 5.72571V5.74885H22.6986L24.3421 1.62236Z" fill="var(--fill-0, black)"/>
<path id="Vector_2" d="M14.257 1.6163H13.2921V4.75415H14.257V1.6163Z" fill="var(--fill-0, black)"/>
<path id="Vector_3" d="M20.9028 3.96944V2.65842C20.9028 1.94421 20.4629 1.55185 19.6871 1.55185C19.192 1.55185 18.8504 1.63396 18.2271 1.81526L18.3979 2.53553C18.966 2.28974 19.2162 2.18449 19.479 2.18449C19.7964 2.18449 19.9373 2.40106 19.9373 2.73502V2.75816C18.8315 2.9571 18.4893 3.06842 18.276 3.27342C18.1173 3.42552 18.05 3.6421 18.05 3.89394C18.05 4.49682 18.5388 4.81866 18.9965 4.81866C19.3386 4.81866 19.6135 4.69577 19.9861 4.42629L20.0534 4.75418H21.0183L20.9028 3.96944ZM19.9378 3.99314C19.6814 4.1276 19.5347 4.1805 19.3639 4.1805C19.1316 4.1805 18.985 4.03392 18.985 3.80026C18.985 3.71264 19.0034 3.62446 19.0764 3.55448C19.1926 3.44316 19.4186 3.36105 19.9378 3.24422V3.99314Z" fill="var(--fill-0, black)"/>
<path id="Vector_4" d="M16.6578 1.55185C16.3036 1.55185 16.0287 1.6808 15.717 1.92658V1.61632H14.7521V5.74888H15.717V4.72442C15.9005 4.77126 16.0713 4.79496 16.2789 4.79496C17.1403 4.79496 17.916 4.18601 17.916 3.10314C17.916 2.13158 17.3542 1.55185 16.6578 1.55185ZM16.0465 4.21522C15.9367 4.21522 15.8326 4.20365 15.7165 4.16838V2.47105C15.9183 2.33659 16.0828 2.27211 16.2904 2.27211C16.6509 2.27211 16.9379 2.5471 16.9379 3.1329C16.9384 3.88182 16.5169 4.21522 16.0465 4.21522Z" fill="var(--fill-0, black)"/>
<path id="Vector_5" d="M5.11269 0H0.975271C0.436457 0 0 0.422129 0 0.94235V4.941C0 5.46122 0.436457 5.88335 0.975271 5.88335H5.11269C5.65151 5.88335 6.08739 5.46122 6.08739 4.941V0.94235C6.08796 0.421578 5.65151 0 5.11269 0Z" fill="var(--fill-0, #1677FF)"/>
<path id="Vector_6" d="M5.01205 3.69435C4.76881 3.61555 4.44161 3.49486 4.07761 3.36756C4.29613 2.99999 4.47094 2.58172 4.58595 2.12708H3.38584V1.70936H4.85564V1.47625H3.38584V0.779684H2.78607C2.68084 0.779684 2.68084 0.879982 2.68084 0.879982V1.4757H1.19435V1.70881H2.68084V2.12653H1.45312V2.35964H3.83379C3.74696 2.6495 3.62965 2.92229 3.49107 3.16973C2.71879 2.92339 1.89418 2.7239 1.37664 2.84679C1.04542 2.9256 0.832078 3.06612 0.706719 3.21381C0.131678 3.88999 0.543982 4.9172 1.75847 4.9172C2.4767 4.9172 3.16847 4.53035 3.70441 3.89274C4.50429 4.26417 6.08738 4.90232 6.08738 4.90232V3.99304C6.08796 3.99304 5.88899 3.97761 5.01205 3.69435ZM1.64519 4.52428C0.698093 4.52428 0.418048 3.80347 0.886132 3.40889C1.04254 3.27553 1.32776 3.2105 1.47957 3.19618C2.04197 3.14272 2.56295 3.34993 3.17767 3.6398C2.74582 4.18427 2.1955 4.52428 1.64519 4.52428Z" fill="var(--fill-0, white)"/>
<path id="Vector_7" d="M9.97522 0.627164H8.68023L7.23285 4.75421H8.12474L8.36913 3.94633H9.90219L10.1345 4.75421H11.2765L9.97522 0.627164ZM8.57039 3.27291L9.14429 1.37057H9.16844L9.71185 3.27291H8.57039Z" fill="var(--fill-0, black)"/>
<path id="Vector_8" d="M12.6319 0.48053H11.667V4.75361H12.6319V0.48053Z" fill="var(--fill-0, black)"/>
<path id="Vector_9" d="M13.2185 0.861275C13.2185 1.16547 13.4508 1.37047 13.7746 1.37047C14.0983 1.37047 14.3306 1.16547 14.3306 0.861275C14.3306 0.562589 14.0983 0.352075 13.7746 0.352075C13.4508 0.352075 13.2185 0.562589 13.2185 0.861275Z" fill="var(--fill-0, #1677FF)"/>
</g>
</svg>
