<svg viewBox="0 0 30 20" fill="none" xmlns="http://www.w3.org/2000/svg" preserveAspectRatio="xMidYMid meet">
<g id="Group">
<path id="Vector" d="M27.5 0H2.5C1.11929 0 0 1.11929 0 2.5V17.5C0 18.8807 1.11929 20 2.5 20H27.5C28.8807 20 30 18.8807 30 17.5V2.5C30 1.11929 28.8807 0 27.5 0Z" fill="var(--fill-0, #016FD0)"/>
<path id="Vector_2" fill-rule="evenodd" clip-rule="evenodd" d="M17.2051 16.7423V9.61558L29.8895 9.62696V11.5956L28.4234 13.1623L29.8895 14.7434V16.7538H27.5487L26.3048 15.3811L25.0696 16.759L17.2051 16.7423Z" fill="var(--fill-0, #FFFFFE)"/>
<path id="Vector_3" fill-rule="evenodd" clip-rule="evenodd" d="M18.0523 15.961V10.3999H22.7676V11.681H19.579V12.5506H22.6916V13.8104H19.579V14.6645H22.7676V15.961H18.0523Z" fill="var(--fill-0, #016FD0)"/>
<path id="Vector_4" fill-rule="evenodd" clip-rule="evenodd" d="M22.7441 15.961L25.3533 13.1772L22.744 10.4H24.7635L26.3579 12.1625L27.9568 10.4H29.8895V10.4438L27.3359 13.1772L29.8895 15.8821V15.961H27.9373L26.3147 14.1808L24.7087 15.961H22.7441Z" fill="var(--fill-0, #016FD0)"/>
<path id="Vector_5" fill-rule="evenodd" clip-rule="evenodd" d="M17.7967 3.28994H20.8543L21.9282 5.72851V3.28994H25.703L26.3539 5.11691L27.0071 3.28994H29.8895V10.4167H14.6564L17.7967 3.28994Z" fill="var(--fill-0, #FFFFFE)"/>
<g id="Group_2">
<path id="Vector_6" fill-rule="evenodd" clip-rule="evenodd" d="M18.3756 4.0642L15.9081 9.62066H17.6004L18.066 8.50796H20.5884L21.0536 9.62066H22.7881L20.3308 4.0642H18.3756ZM18.5876 7.26099L19.3276 5.49215L20.0671 7.26099H18.5876Z" fill="var(--fill-0, #016FD0)"/>
<path id="Vector_7" fill-rule="evenodd" clip-rule="evenodd" d="M22.765 9.61967V4.06331L25.1439 4.07149L26.368 7.4874L27.6 4.06331H29.8895V9.61967L28.4162 9.63271V5.81602L27.0255 9.61967H25.6808L24.2612 5.80298V9.61967H22.765Z" fill="var(--fill-0, #016FD0)"/>
</g>
</g>
</svg>
