<svg viewBox="0 0 21.4852 8.68178" fill="none" xmlns="http://www.w3.org/2000/svg" preserveAspectRatio="xMidYMid meet">
<path id="ApplePay" fill-rule="evenodd" clip-rule="evenodd" d="M2.86816 1.6108C3.27106 1.64384 3.67395 1.41255 3.92576 1.1193C4.17337 0.81779 4.33704 0.413025 4.29507 0C3.93835 0.0165211 3.49768 0.231294 3.24588 0.532803C3.01505 0.793009 2.8178 1.21429 2.86816 1.6108ZM7.66092 6.93055V0.491497H10.116C11.3835 0.491497 12.269 1.35059 12.269 2.60618C12.269 3.86178 11.3667 4.72913 10.0825 4.72913H8.67655V6.93055H7.66092ZM4.29086 1.68929C3.93592 1.66918 3.61205 1.79434 3.35045 1.89543C3.18211 1.96049 3.03955 2.01558 2.9311 2.01558C2.80939 2.01558 2.66095 1.95754 2.49428 1.89238C2.27589 1.807 2.02622 1.70939 1.76439 1.71407C1.16425 1.72233 0.606074 2.05688 0.299708 2.58968C-0.329812 3.65529 0.136033 5.23304 0.744568 6.10039C1.04254 6.52994 1.39927 7.00079 1.86931 6.98427C2.0761 6.97659 2.22485 6.91447 2.3788 6.85018C2.55603 6.77617 2.74014 6.69928 3.02762 6.69928C3.30514 6.69928 3.4812 6.77416 3.65021 6.84605C3.81091 6.9144 3.96523 6.98003 4.19433 6.97601C4.68116 6.96775 4.98753 6.54646 5.2855 6.11691C5.60706 5.65589 5.74837 5.20596 5.76981 5.13768L5.77233 5.12979C5.77181 5.12928 5.76784 5.12749 5.76083 5.12433C5.65333 5.0759 4.83173 4.70573 4.82385 3.71311C4.81594 2.87995 5.47553 2.45782 5.57936 2.39136L5.57936 2.39136L5.5794 2.39134L5.57941 2.39133C5.5857 2.38731 5.58994 2.38459 5.59187 2.38317C5.17219 1.77189 4.51749 1.70581 4.29086 1.68929ZM14.124 6.9801C14.7619 6.9801 15.3537 6.66207 15.6223 6.15818H15.6433V6.93053H16.5833V3.72546C16.5833 2.79616 15.8279 2.19727 14.6654 2.19727C13.5868 2.19727 12.7894 2.80442 12.7601 3.63873H13.675C13.7505 3.24222 14.124 2.98202 14.636 2.98202C15.2572 2.98202 15.6055 3.267 15.6055 3.79155V4.14675L14.3381 4.22109C13.1588 4.29131 12.5208 4.76628 12.5208 5.59233C12.5208 6.42664 13.1797 6.9801 14.124 6.9801ZM14.3968 6.21601C13.8554 6.21601 13.5112 5.95994 13.5112 5.56756C13.5112 5.1628 13.8428 4.92738 14.4765 4.89021L15.6054 4.81999V5.18345C15.6054 5.78647 15.085 6.21601 14.3968 6.21601ZM19.7015 7.1825C19.2945 8.31006 18.8286 8.68178 17.8382 8.68178C17.7626 8.68178 17.5108 8.67352 17.4521 8.657V7.88464C17.515 7.8929 17.6703 7.90116 17.75 7.90116C18.1991 7.90116 18.4509 7.7153 18.6062 7.23206L18.6985 6.94708L16.9778 2.25924H18.0396L19.2357 6.0632H19.2567L20.4528 2.25924H21.4852L19.7015 7.1825ZM8.67645 1.33408H9.84736C10.7287 1.33408 11.2323 1.79667 11.2323 2.61033C11.2323 3.42399 10.7287 3.8907 9.84316 3.8907H8.67645V1.33408Z" fill="var(--fill-0, black)"/>
</svg>
