<svg viewBox="0 0 7.09037 7.13632" fill="none" xmlns="http://www.w3.org/2000/svg" preserveAspectRatio="xMidYMid meet">
<g id="G">
<path id="Blue" d="M7.09037 3.64757C7.09037 3.40475 7.07027 3.16192 7.03008 2.92405H3.61865V4.29676H5.57306C5.49268 4.73781 5.23142 5.13426 4.84958 5.38205V6.27406H6.01519C6.69848 5.65461 7.09037 4.73781 7.09037 3.64757Z" fill="var(--fill-0, #4285F4)"/>
<path id="Green" d="M3.61881 7.13632C4.5935 7.13632 5.41747 6.81916 6.01535 6.27404L4.84974 5.38202C4.52316 5.60007 4.10616 5.72396 3.61881 5.72396C2.67426 5.72396 1.87541 5.0946 1.58904 4.25214H0.388254V5.17389C1.00121 6.37811 2.25223 7.13632 3.61881 7.13632Z" fill="var(--fill-0, #34A853)"/>
<path id="Yellow" d="M1.58919 4.25217C1.43844 3.81112 1.43844 3.33042 1.58919 2.88441V1.96762H0.388214C-0.12936 2.97361 -0.12936 4.16297 0.388214 5.16896L1.58919 4.25217Z" fill="var(--fill-0, #FBBC04)"/>
<path id="Red" d="M3.61881 1.41257C4.1363 1.40266 4.6337 1.59593 5.00549 1.94778L6.04047 0.926922C5.3823 0.322334 4.51814 -0.00969333 3.61881 0.000217939C2.25223 0.000217939 1.00121 0.763386 0.388254 1.9676L1.58904 2.88935C1.87542 2.04194 2.67426 1.41257 3.61881 1.41257Z" fill="var(--fill-0, #EA4335)"/>
</g>
</svg>
