<svg viewBox="0 0 12.3545 8.08337" fill="none" xmlns="http://www.w3.org/2000/svg" preserveAspectRatio="xMidYMid meet">
<g id="Pay">
<path id="Union" d="M10.209 5.01598H10.2246L11.4756 1.96325H12.3545L9.65137 8.08337H8.81738L9.82227 5.94274L8.04883 1.96325H8.92773L10.209 5.01598ZM5.97852 1.82458C6.57635 1.82458 7.04885 1.98312 7.39551 2.29528C7.74218 2.60748 7.91309 3.04403 7.91309 3.59411V6.2152H7.13965V5.62536H7.10449C6.76787 6.11101 6.32526 6.35387 5.76758 6.35387C5.29546 6.35383 4.8936 6.21525 4.57715 5.93786C4.26565 5.68017 4.08956 5.29825 4.09961 4.89684C4.09965 4.45587 4.27084 4.10868 4.60742 3.84606C4.94401 3.58357 5.39644 3.45446 5.95898 3.45446C6.44115 3.45449 6.8331 3.54383 7.14453 3.71227V3.52966C7.14453 3.2571 7.02352 2.99907 6.8125 2.82067C6.59651 2.63246 6.32046 2.5287 6.03418 2.52868C5.582 2.52868 5.22513 2.7165 4.96387 3.09313L4.25098 2.65173C4.63277 2.10204 5.21019 1.82465 5.97852 1.82458ZM2.14551 0.000358142C2.66293 -0.00950306 3.1655 0.184611 3.53223 0.541374C4.26546 1.21537 4.31029 2.35011 3.62207 3.07848L3.53223 3.16735C3.15545 3.51916 2.69307 3.69759 2.14551 3.69762H0.808594V6.2152H0V0.000358142H2.14551ZM6.08496 4.09899C5.75834 4.09899 5.48184 4.17876 5.26074 4.33239C5.04479 4.48594 4.9337 4.67874 4.93359 4.91149C4.93359 5.11959 5.03443 5.31306 5.2002 5.432C5.38104 5.57071 5.60207 5.64491 5.82812 5.64001C6.16982 5.64001 6.49708 5.50678 6.73828 5.26891C7.00442 5.02126 7.13952 4.72871 7.13965 4.39196C6.88846 4.19379 6.53704 4.09409 6.08496 4.09899ZM0.808594 2.93493H2.16602C2.46739 2.94475 2.75889 2.82566 2.96484 2.61266C3.3869 2.18157 3.3765 1.48793 2.93945 1.07165C2.7335 0.873487 2.45736 0.764101 2.16602 0.76403H0.808594V2.93493Z" fill="var(--fill-0, #3C4043)"/>
</g>
</svg>
