<svg xmlns="http://www.w3.org/2000/svg" viewBox="0 0 38 24" fill="none">
  <rect width="38" height="24" rx="3" fill="#fff"/>
  <rect x=".5" y=".5" width="37" height="23" rx="2.5" stroke="#D9D9D9"/>
  <path d="M7 4h6.5c.8 0 1.3.6 1.1 1.4L12.2 18c-.2.8-1 1.4-1.8 1.4H4c-.8 0-1.3-.6-1.1-1.4L5.2 5.4C5.4 4.6 6.2 4 7 4z" fill="#E21836"/>
  <path d="M13 4h7c.8 0 1.3.6 1.1 1.4L18.7 18c-.2.8-1 1.4-1.8 1.4h-7c-.8 0-1.3-.6-1.1-1.4L11.2 5.4c.2-.8 1-1.4 1.8-1.4z" fill="#00447C"/>
  <path d="M19.5 4H26c.8 0 1.3.6 1.1 1.4L24.7 18c-.2.8-1 1.4-1.8 1.4h-6.5c-.8 0-1.3-.6-1.1-1.4l2.4-12.6c.2-.8 1-1.4 1.8-1.4z" fill="#007B84"/>
  <path d="M25.5 4H33c.8 0 1.3.6 1.1 1.4L31.7 18c-.2.8-1 1.4-1.8 1.4H23c-.8 0-1.3-.6-1.1-1.4l2.4-12.6C24.5 4.6 25.2 4 25.5 4z" fill="#1A9F29"/>
</svg>
