<svg viewBox="0 0 13.2857 11.6667" fill="none" xmlns="http://www.w3.org/2000/svg" preserveAspectRatio="xMidYMid meet">
<path id="WeChat" d="M4.83169 7.37988C4.77172 7.41002 4.70423 7.42745 4.63246 7.42745C4.46635 7.42745 4.32198 7.33651 4.24617 7.20188L4.21714 7.13868L3.00778 4.49733C2.99472 4.46862 2.98664 4.43612 2.98664 4.4045C2.98664 4.28277 3.08582 4.18415 3.20812 4.18415C3.25773 4.18415 3.30367 4.20052 3.3406 4.22784L4.76773 5.23919C4.87197 5.30702 4.99655 5.34682 5.13047 5.34682C5.21041 5.34682 5.28659 5.33203 5.35766 5.30628L12.0689 2.33334C10.8659 0.92226 8.88472 0 6.64274 0C2.97391 0 0 2.46673 0 5.50979C0 7.16984 0.894748 8.66429 2.29526 9.67439C2.40758 9.75423 2.48116 9.8854 2.48116 10.0334C2.48116 10.0824 2.47061 10.1271 2.45775 10.1738C2.34589 10.589 2.16687 11.2541 2.15855 11.2852C2.14457 11.3373 2.12278 11.3918 2.12278 11.4463C2.12278 11.5681 2.22187 11.6667 2.34436 11.6667C2.39234 11.6667 2.43164 11.6489 2.47219 11.6257L3.92645 10.7899C4.03584 10.7272 4.15164 10.6882 4.27929 10.6882C4.34716 10.6882 4.41275 10.6987 4.47443 10.7175C5.15286 10.9117 5.88484 11.0196 6.64279 11.0196C10.3114 11.0196 13.2857 8.55272 13.2857 5.50979C13.2857 4.58809 13.0113 3.72006 12.529 2.95647L4.88037 7.35196L4.83169 7.37988Z" fill="var(--fill-0, #1AAD19)"/>
</svg>
