<svg preserveAspectRatio="none" width="100%" height="100%" overflow="visible" style="display: block;" viewBox="0 0 16 16" fill="none" xmlns="http://www.w3.org/2000/svg">
<g id="card-tick">
<path id="Vector" d="M1.33333 7.64V10.9733C1.33333 12.5 2.56667 13.7333 4.09333 13.7333H11.9C13.4267 13.7333 14.6667 12.4933 14.6667 10.9667V7.64C14.6667 7.19333 14.3067 6.83333 13.86 6.83333H2.14C1.69333 6.83333 1.33333 7.19333 1.33333 7.64ZM5.33333 11.5H4C3.72667 11.5 3.5 11.2733 3.5 11C3.5 10.7267 3.72667 10.5 4 10.5H5.33333C5.60667 10.5 5.83333 10.7267 5.83333 11C5.83333 11.2733 5.60667 11.5 5.33333 11.5ZM9.66667 11.5H7C6.72667 11.5 6.5 11.2733 6.5 11C6.5 10.7267 6.72667 10.5 7 10.5H9.66667C9.94 10.5 10.1667 10.7267 10.1667 11C10.1667 11.2733 9.94 11.5 9.66667 11.5Z" fill="#000000"/>
<path id="Vector_2" d="M9 3.07333V5.02667C9 5.47333 8.64 5.83333 8.19333 5.83333H2.14C1.68667 5.83333 1.33333 5.46 1.33333 5.01333C1.34 4.26 1.64 3.57333 2.14 3.07333C2.64 2.57333 3.33333 2.26667 4.09333 2.26667H8.19333C8.64 2.26667 9 2.62667 9 3.07333Z" fill="#000000"/>
<path id="Vector_3" d="M13.3133 1.33333H11.3533C10.5067 1.33333 10 1.84 10 2.68667V4.64667C10 5.49333 10.5067 6 11.3533 6H13.3133C14.16 6 14.6667 5.49333 14.6667 4.64667V2.68667C14.6667 1.84 14.16 1.33333 13.3133 1.33333ZM13.7533 2.96667L12.1733 4.81333C12.1133 4.88667 12.02 4.93333 11.9267 4.93333C11.92 4.93333 11.92 4.93333 11.9133 4.93333C11.82 4.93333 11.7333 4.9 11.6667 4.83333L10.9333 4.11333C10.8 3.98 10.8 3.76 10.9333 3.62667C11.0667 3.49333 11.2867 3.48667 11.42 3.62667L11.8867 4.08667L13.22 2.52667C13.3467 2.38 13.56 2.36667 13.7067 2.48667C13.86 2.60667 13.8733 2.82667 13.7533 2.96667Z" fill="#000000"/>
<g id="Vector_4" opacity="0">
</g>
</g>
</svg>
